<svg id="Layer_1" data-name="Layer 1" xmlns="http://www.w3.org/2000/svg" viewBox="0 0 73 73"><defs><style>.cls-1{fill:#fff;stroke:#231f20;stroke-miterlimit:10;}.cls-2{fill:#231f20;}</style></defs><title>1in-square</title><rect class="cls-1" x="0.5" y="0.5" width="72" height="72"/><polygon class="cls-2" points="31.52 32.34 31.5 32.34 30.14 33.08 29.93 32.27 31.64 31.36 32.54 31.36 32.54 39.16 31.52 39.16 31.52 32.34"/><path class="cls-2" d="M127.35,153.19a.63.63,0,0,1-.68.65.63.63,0,0,1-.63-.65.63.63,0,0,1,.66-.65A.62.62,0,0,1,127.35,153.19Z" transform="translate(-90.45 -121.47)"/><rect class="cls-2" x="35.72" y="33.35" width="1.06" height="5.8"/><path class="cls-2" d="M129,156.4c0-.6,0-1.09,0-1.57h.94l.06,1h0a2.13,2.13,0,0,1,1.92-1.1c.8,0,2,.48,2,2.47v3.47h-1.06v-3.35c0-.93-.34-1.71-1.34-1.71a1.5,1.5,0,0,0-1.41,1.08,1.44,1.44,0,0,0-.08.49v3.49H129Z" transform="translate(-90.45 -121.47)"/></svg>