<svg id="Layer_1" data-name="Layer 1" xmlns="http://www.w3.org/2000/svg" viewBox="0 0 419.96 300.36"><defs><style>.cls-1,.cls-3{fill:none;stroke-miterlimit:10;}.cls-1{stroke:#231f20;}.cls-2{fill:#231f20;}.cls-3{stroke:#000;stroke-width:0.28px;}</style></defs><title>inc-txt</title><rect class="cls-1" x="0.5" y="12.27" width="72" height="72"/><polygon class="cls-2" points="28.59 1.28 28.57 1.28 27.21 2.02 27.01 1.21 28.71 0.3 29.61 0.3 29.61 8.1 28.59 8.1 28.59 1.28"/><path class="cls-2" d="M100.84,50.35a.65.65,0,1,1-1.3,0,.64.64,0,0,1,.65-.66A.63.63,0,0,1,100.84,50.35Z" transform="translate(-66.87 -49.69)"/><rect class="cls-2" x="32.8" y="2.29" width="1.06" height="5.8"/><path class="cls-2" d="M102.48,53.55c0-.6,0-1.09,0-1.57h.93l.06,1h0a2.13,2.13,0,0,1,1.92-1.09c.8,0,2,.48,2,2.47v3.46h-1.06V54.44c0-.94-.35-1.72-1.34-1.72a1.5,1.5,0,0,0-1.42,1.08,1.45,1.45,0,0,0-.07.49v3.49h-1Z" transform="translate(-66.87 -49.69)"/><polygon class="cls-2" points="78.97 46.2 78.94 46.2 77.59 46.94 77.38 46.13 79.09 45.22 79.99 45.22 79.99 53.02 78.97 53.02 78.97 46.2"/><path class="cls-2" d="M151.21,95.27a.62.62,0,0,1-.67.65.63.63,0,0,1-.63-.65.64.64,0,0,1,.66-.66A.62.62,0,0,1,151.21,95.27Z" transform="translate(-66.87 -49.69)"/><rect class="cls-2" x="83.17" y="47.21" width="1.06" height="5.8"/><path class="cls-2" d="M152.85,98.47c0-.6,0-1.09,0-1.57h.93l.06,1h0a2.14,2.14,0,0,1,1.92-1.09c.8,0,2,.48,2,2.47v3.46h-1.06V99.36c0-.94-.35-1.72-1.34-1.72A1.5,1.5,0,0,0,154,98.72a1.75,1.75,0,0,0-.07.49v3.49h-1.05Z" transform="translate(-66.87 -49.69)"/><path class="cls-3" d="M274.92,68.16c-.33-1.82-1.21-2.67-2.64-2.52-1.14.13-2.1.92-2,2.88a2.43,2.43,0,0,0,2.27,2.4c1.2,0,2.06-1,2.4-2.64" transform="translate(-66.87 -49.69)"/><path class="cls-3" d="M196.2,68.16c-.33-1.82-1.21-2.67-2.64-2.52-1.14.13-2.1.92-2,2.88a2.43,2.43,0,0,0,2.27,2.4c1.2,0,2.06-1,2.4-2.64" transform="translate(-66.87 -49.69)"/><path class="cls-3" d="M260.76,68.4c.24.84.3,1.75,1.31,2.18,1.16.49,1.8.48,2.65-.38a2.91,2.91,0,0,0,.47-3.24,2.16,2.16,0,0,0-2.51-1.32,2.43,2.43,0,0,0-1.8,2l-.12.6" transform="translate(-66.87 -49.69)"/><path class="cls-3" d="M220.92,111.36c-.33-1.82-1.21-2.67-2.64-2.52-1.14.13-2.1.92-2,2.88a2.43,2.43,0,0,0,2.27,2.4c1.2,0,2.06-1,2.4-2.64" transform="translate(-66.87 -49.69)"/><path class="cls-3" d="M240.6,97.2c.24.84.3,1.75,1.31,2.18,1.16.49,1.8.48,2.65-.38a2.91,2.91,0,0,0,.47-3.24,2.16,2.16,0,0,0-2.51-1.32,2.43,2.43,0,0,0-1.8,2l-.12.6" transform="translate(-66.87 -49.69)"/><path class="cls-3" d="M269.88,84.48c.16,0,.36,0,.47.13A2,2,0,0,0,273,85a2.79,2.79,0,0,0,1-3.12c-.4-1.5-.95-1.93-2.48-1.81l-1.72,1.09" transform="translate(-66.87 -49.69)"/><path class="cls-3" d="M274.2,124.08c-.16,0-.37,0-.47-.13a1.93,1.93,0,0,0-2.53-.46,2.67,2.67,0,0,0-1.19,2.87,2.08,2.08,0,0,0,3.35,1.68,7.86,7.86,0,0,1,.84-.36" transform="translate(-66.87 -49.69)"/><path class="cls-3" d="M223.92,70.08l.84.48A2.06,2.06,0,0,0,228,69a4.47,4.47,0,0,0-.24-2.15,1.91,1.91,0,0,0-3-.85c-.27.17-.56.32-.84.48" transform="translate(-66.87 -49.69)"/><path class="cls-3" d="M201,95.28a1.75,1.75,0,0,1-.59-.25,2,2,0,0,0-2.52-.33,3.35,3.35,0,0,0-1.09,3.1,2.17,2.17,0,0,0,3.36,1.44c.27-.14.56-.24.84-.36" transform="translate(-66.87 -49.69)"/><path class="cls-3" d="M257.88,109.44l-2.48-.73c-1.47,1.23-2,2.79-1.48,4s1.15,1.41,2.67,1.21l1.47-.85" transform="translate(-66.87 -49.69)"/><path class="cls-3" d="M258.12,66.24l-.84-.36a2.09,2.09,0,0,0-3.08,1.22,3,3,0,0,0,.45,3.09,1.77,1.77,0,0,0,2.14.48,13.07,13.07,0,0,0,1.51-.83" transform="translate(-66.87 -49.69)"/><path class="cls-3" d="M226.92,109.44l-2.48-.73c-1.47,1.23-2,2.79-1.48,4s1.15,1.41,2.67,1.21l1.47-.85" transform="translate(-66.87 -49.69)"/><path class="cls-3" d="M190.2,124.08a1.75,1.75,0,0,1-.59-.25,2,2,0,0,0-2.52-.33,3.35,3.35,0,0,0-1.09,3.1,2.17,2.17,0,0,0,3.36,1.44c.27-.14.56-.24.84-.36" transform="translate(-66.87 -49.69)"/><path class="cls-3" d="M186.48,63.6v7.08h3.72" transform="translate(-66.87 -49.69)"/><path class="cls-3" d="M241.08,124.2c-.78-.59-1.54-1.25-2.65-.9-1.6.82-1.6,2.25-1.28,3.82,1.23,1.49,1.66,1.55,3.45.45a1.55,1.55,0,0,1,.48-.13" transform="translate(-66.87 -49.69)"/><path class="cls-3" d="M302.52,81c-2-1.57-3.48-1.19-4,1-.33,1.4.17,2.38,1.62,3.25l2.35-1" transform="translate(-66.87 -49.69)"/><path class="cls-3" d="M318.12,111.48l4.38-.38c-.11-1.86-.83-2.38-2.22-2.26a2,2,0,0,0-1.68,2.4" transform="translate(-66.87 -49.69)"/><path class="cls-3" d="M312.6,111.24h3.88c-.33-2-.84-2.56-2.2-2.37a2.84,2.84,0,0,0-1.42.83,3.91,3.91,0,0,0-.14,3.46,2.72,2.72,0,0,0,3.12.72,1.45,1.45,0,0,1,.36,0" transform="translate(-66.87 -49.69)"/><path class="cls-3" d="M225,82.44h3.88c-.33-2-.84-2.56-2.2-2.37a2.84,2.84,0,0,0-1.42.83,3.91,3.91,0,0,0-.14,3.46,2.72,2.72,0,0,0,3.12.72,1.45,1.45,0,0,1,.36,0" transform="translate(-66.87 -49.69)"/><path class="cls-3" d="M241.08,82.68l4.38-.38c-.11-1.86-.83-2.38-2.22-2.26a2,2,0,0,0-1.68,2.4" transform="translate(-66.87 -49.69)"/><path class="cls-3" d="M212.28,125.88l4.38-.38c-.11-1.86-.83-2.38-2.22-2.26a2,2,0,0,0-1.68,2.4" transform="translate(-66.87 -49.69)"/><path class="cls-3" d="M312.84,68.28l4.38-.38c-.11-1.86-.83-2.38-2.22-2.26a2,2,0,0,0-1.68,2.4" transform="translate(-66.87 -49.69)"/><path class="cls-3" d="M186.24,111.24H190c0-1.92-.53-2.4-2.44-2.4-1.48.64-1.6,1.85-1.58,3.12a2.66,2.66,0,0,0,3.24,2.16c.31-.07.64-.08,1-.12" transform="translate(-66.87 -49.69)"/><path class="cls-3" d="M301.92,125.64h3.78c0-1.92-.53-2.4-2.44-2.4-1.48.64-1.6,1.85-1.58,3.12a2.66,2.66,0,0,0,3.24,2.16c.31-.07.64-.08,1-.12" transform="translate(-66.87 -49.69)"/><path class="cls-3" d="M307.92,82.44h3.78c0-1.92-.53-2.4-2.44-2.4-1.48.64-1.6,1.85-1.58,3.12a2.66,2.66,0,0,0,3.24,2.16c.31-.07.64-.08,1-.12" transform="translate(-66.87 -49.69)"/><path class="cls-3" d="M191,96.84h3.78c0-1.92-.53-2.4-2.44-2.4-1.48.64-1.6,1.85-1.58,3.12A2.66,2.66,0,0,0,194,99.72c.31-.07.64-.08,1-.12" transform="translate(-66.87 -49.69)"/><path class="cls-3" d="M204.12,109.08l-1.47-.33-1.32,1.15a17.17,17.17,0,0,0,1.24,1.21c.36.29.87.42,1.17.75s.58.92.45,1.15a2.61,2.61,0,0,1-1.29,1.07c-.4.14-.94-.12-1.42-.2" transform="translate(-66.87 -49.69)"/><path class="cls-3" d="M285.84,65.88c-.52-.08-1.11-.34-1.54-.18a1.5,1.5,0,0,0-.8,1.14c0,.35.45.79.79,1.07.61.49,1.3.89,1.89,1.28-.6,1.77-1.19,2-3,1.49" transform="translate(-66.87 -49.69)"/><path class="cls-3" d="M189.48,80c-1.34-.1-2.59,0-3.24,1.44a2.6,2.6,0,0,0,.27,2.86,2.21,2.21,0,0,0,2.86.76c.14-.08.39.06.59.1" transform="translate(-66.87 -49.69)"/><path class="cls-3" d="M207.24,80.28,205.77,80l-1.32,1.15a17.17,17.17,0,0,0,1.24,1.21c.36.29.87.42,1.17.75s.58.92.45,1.15A2.61,2.61,0,0,1,206,85.28c-.4.14-.94-.12-1.42-.2" transform="translate(-66.87 -49.69)"/><path class="cls-3" d="M249.12,109c-2-.33-2.23-.09-3.36,1.32-.72,3.26,1.44,4.35,3.48,3.6" transform="translate(-66.87 -49.69)"/><path class="cls-3" d="M218.88,80.16c-2-.33-2.23-.09-3.36,1.32-.72,3.26,1.44,4.35,3.48,3.6" transform="translate(-66.87 -49.69)"/><path class="cls-3" d="M247.92,128.4a23.19,23.19,0,0,0,0-3.12c-.08-.62-.37-1.49-.84-1.72s-1.33,0-2,.18a3.84,3.84,0,0,0-1,.46" transform="translate(-66.87 -49.69)"/><path class="cls-3" d="M238.32,99.6a23.19,23.19,0,0,0,0-3.12c-.08-.62-.37-1.49-.84-1.72s-1.33,0-2,.18a3.84,3.84,0,0,0-1,.46" transform="translate(-66.87 -49.69)"/><path class="cls-3" d="M229.2,99.6V96.48a1.81,1.81,0,0,0-1.08-1.92,1.72,1.72,0,0,0-2,.6l-.48.48" transform="translate(-66.87 -49.69)"/><path class="cls-3" d="M300.6,67.8a17.17,17.17,0,0,0-2.39.5,1.25,1.25,0,0,0-.73,1.78,1.28,1.28,0,0,0,1.8.71c.51-.2,1-.47,1.5-.71" transform="translate(-66.87 -49.69)"/><path class="cls-3" d="M271.44,114a23.19,23.19,0,0,0,0-3.12c-.08-.62-.37-1.49-.84-1.72s-1.33,0-2,.18a3.84,3.84,0,0,0-1,.46" transform="translate(-66.87 -49.69)"/><path class="cls-3" d="M296.88,128.4v-3.12a1.81,1.81,0,0,0-1.08-1.92,1.72,1.72,0,0,0-2,.6l-.48.48" transform="translate(-66.87 -49.69)"/><path class="cls-3" d="M296.1,85.2c0-1-.1-1.92,0-2.88s-.17-1.79-1-2.11a2,2,0,0,0-2.15.54,2.36,2.36,0,0,1-.59.37" transform="translate(-66.87 -49.69)"/><path class="cls-3" d="M202.26,85.2c0-1-.1-1.92,0-2.88s-.17-1.79-1-2.11a2,2,0,0,0-2.15.54,2.36,2.36,0,0,1-.59.37" transform="translate(-66.87 -49.69)"/><path class="cls-3" d="M292.92,99.72c0-1,0-1.92,0-2.88s-.15-1.89-1-2.22a1.84,1.84,0,0,0-2.27.65c-.07.1-.31.09-.47.13" transform="translate(-66.87 -49.69)"/><path class="cls-3" d="M243.24,114.12c0-1,0-1.92,0-2.88s-.15-1.89-1-2.22a1.84,1.84,0,0,0-2.27.65c-.07.1-.31.09-.47.13" transform="translate(-66.87 -49.69)"/><path class="cls-3" d="M251.58,99.6a31.79,31.79,0,0,0-.08-3.24c-.23-1.93-1.37-2.4-3-1.33a3.16,3.16,0,0,1-.6.25" transform="translate(-66.87 -49.69)"/><path class="cls-3" d="M254.34,94.56c0,1.12-.05,2.25.08,3.36.2,1.74,1.46,2.23,2.86,1.2.25-.18.52-.32.78-.48" transform="translate(-66.87 -49.69)"/><path class="cls-3" d="M260.94,109c0,1,.08,2,.05,3,0,.8.1,1.64.87,1.86a4.65,4.65,0,0,0,2-.31,3.67,3.67,0,0,0,.72-.35" transform="translate(-66.87 -49.69)"/><path class="cls-3" d="M268.2,99.72c0-1,0-2,0-3a2,2,0,0,0-1.08-2.15c-.88-.38-1.48.11-2,.71a2.25,2.25,0,0,1-.36.24" transform="translate(-66.87 -49.69)"/><path class="cls-3" d="M235.26,65.76c0,1,.08,2,.05,3,0,.8.1,1.64.87,1.86a4.65,4.65,0,0,0,2-.31,3.67,3.67,0,0,0,.72-.35" transform="translate(-66.87 -49.69)"/><path class="cls-3" d="M309.18,99.6c0-1.16.05-2.33-.08-3.48-.18-1.6-1.34-2.07-2.74-1.21a6.3,6.3,0,0,1-.84.37" transform="translate(-66.87 -49.69)"/><path class="cls-3" d="M310.8,70.8c0-1.08,0-2.16,0-3.24a1.73,1.73,0,0,0-1-1.79,1.64,1.64,0,0,0-1.92.46,4.47,4.47,0,0,1-.71.49" transform="translate(-66.87 -49.69)"/><path class="cls-3" d="M228.84,128.52c0-1,0-2,0-3a2,2,0,0,0-1.08-2.15c-.88-.38-1.48.11-2,.71a2.25,2.25,0,0,1-.36.24" transform="translate(-66.87 -49.69)"/><path class="cls-3" d="M215.64,70.92c0-1.2,0-2.4-.13-3.6A1.57,1.57,0,0,0,214,65.64a2.64,2.64,0,0,0-2,1.92c0,1.08,0,2.16,0,3.24" transform="translate(-66.87 -49.69)"/><path class="cls-3" d="M280.68,109.08c0,1,0,1.92,0,2.88a1.85,1.85,0,0,0,1.09,2,1.71,1.71,0,0,0,1.93-.55c.15-.2.5-.25.76-.37" transform="translate(-66.87 -49.69)"/><path class="cls-3" d="M278.28,99.72c0-1.2,0-2.4-.13-3.6a1.57,1.57,0,0,0-1.55-1.68,2.64,2.64,0,0,0-2,1.92c0,1.08,0,2.16,0,3.24" transform="translate(-66.87 -49.69)"/><path class="cls-3" d="M199.8,120.84v7.68" transform="translate(-66.87 -49.69)"/><path class="cls-3" d="M235.2,80.16c0,1,0,1.92,0,2.88a2,2,0,0,0,1.1,2.11,1.76,1.76,0,0,0,2-.66c.08-.1.31-.09.47-.13" transform="translate(-66.87 -49.69)"/><path class="cls-3" d="M299.52,111c-1,0-2.15,0-2.84.87a1.78,1.78,0,0,0-.22,1.62,1.28,1.28,0,0,0,1.74.51l1.32-.6" transform="translate(-66.87 -49.69)"/><path class="cls-3" d="M277.2,123.36c0,1,0,1.92,0,2.88a2,2,0,0,0,1.1,2.11,1.76,1.76,0,0,0,2-.66c.08-.1.31-.09.47-.13" transform="translate(-66.87 -49.69)"/><path class="cls-3" d="M214,114.12c0-1.2-.05-2.4-.13-3.6a1.57,1.57,0,0,0-1.55-1.68,2.64,2.64,0,0,0-2,1.92c0,1.08,0,2.16,0,3.24" transform="translate(-66.87 -49.69)"/><path class="cls-3" d="M249.24,70.92c0-1.2-.05-2.4-.13-3.6a1.57,1.57,0,0,0-1.55-1.68,2.64,2.64,0,0,0-2,1.92c0,1.08,0,2.16,0,3.24" transform="translate(-66.87 -49.69)"/><path class="cls-3" d="M234.48,125.4c-1,0-2.15,0-2.84.87a1.78,1.78,0,0,0-.22,1.62,1.28,1.28,0,0,0,1.74.51l1.32-.6" transform="translate(-66.87 -49.69)"/><path class="cls-3" d="M314.88,125.4c-1,0-2.15,0-2.84.87a1.78,1.78,0,0,0-.22,1.62,1.28,1.28,0,0,0,1.74.51l1.32-.6" transform="translate(-66.87 -49.69)"/><path class="cls-3" d="M192.48,109c0,1,0,1.92,0,2.88a2,2,0,0,0,1.1,2.11,1.76,1.76,0,0,0,2-.66c.08-.1.31-.09.47-.13" transform="translate(-66.87 -49.69)"/><path class="cls-3" d="M267.72,63.24l.06,7.56" transform="translate(-66.87 -49.69)"/><path class="cls-3" d="M314,77.64l.06,7.56" transform="translate(-66.87 -49.69)"/><path class="cls-3" d="M264.84,120.84l-.06,7.56" transform="translate(-66.87 -49.69)"/><path class="cls-3" d="M293.88,106.44l-.06,7.56" transform="translate(-66.87 -49.69)"/><path class="cls-3" d="M261.84,125.4a13.35,13.35,0,0,0-2.39.51,1.43,1.43,0,0,0-.73,1.89,1.55,1.55,0,0,0,2.16.48l1-.48" transform="translate(-66.87 -49.69)"/><path class="cls-3" d="M188.52,94.56a2.3,2.3,0,0,0-2.16.36c-.46,1.19.08,1.63,1.08,2,1.26.51,1.45.93,1.08,2.28a2.34,2.34,0,0,1-2.51.22c-.09,0-.09-.3-.13-.46" transform="translate(-66.87 -49.69)"/><path class="cls-3" d="M274.5,107.52v6.33l1.86.15" transform="translate(-66.87 -49.69)"/><path class="cls-3" d="M320.1,78.72v6.33l1.86.15" transform="translate(-66.87 -49.69)"/><path class="cls-3" d="M231.54,78.72v6.33l1.86.15" transform="translate(-66.87 -49.69)"/><path class="cls-3" d="M302.88,80.16c0,1.48-.18,3-.1,4.44.15,2.86-1.78,3.56-3.61,2.87-.16-.06-.25-.31-.37-.47" transform="translate(-66.87 -49.69)"/><path class="cls-3" d="M202.08,68h3.71c.16-1.35-.29-2.2-1.19-2.4a2.11,2.11,0,0,0-2.4,1.2,2.85,2.85,0,0,0,.14,3.1c.89,1.17,2.16,1.15,3.46.74" transform="translate(-66.87 -49.69)"/><path class="cls-3" d="M209.52,82.44h3.71c.16-1.35-.29-2.2-1.19-2.4a2.11,2.11,0,0,0-2.4,1.2,2.85,2.85,0,0,0,.14,3.1c.89,1.17,2.16,1.15,3.46.74" transform="translate(-66.87 -49.69)"/><path class="cls-3" d="M325.14,107.52c0,1.52-.07,3-.05,4.56s.29,2.1,1.91,1.92" transform="translate(-66.87 -49.69)"/><path class="cls-3" d="M291.54,64.32c0,1.52-.07,3-.05,4.56s.29,2.1,1.91,1.92" transform="translate(-66.87 -49.69)"/><path class="cls-3" d="M319.86,64.32c0,1.52-.07,3-.05,4.56s.29,2.1,1.91,1.92" transform="translate(-66.87 -49.69)"/><path class="cls-3" d="M241.44,123.36c-.08,1.72-.13,3.44-.25,5.16-.14,2-1.35,2.8-3.35,2.16a1.45,1.45,0,0,0-.36,0" transform="translate(-66.87 -49.69)"/><path class="cls-3" d="M232.8,107.52c0,1.68,0,3.36,0,5,0,1,.34,1.35,1.44,1.44" transform="translate(-66.87 -49.69)"/><path class="cls-3" d="M318,121.92c0,1.68,0,3.36,0,5,0,1,.34,1.35,1.44,1.44" transform="translate(-66.87 -49.69)"/><path class="cls-3" d="M287.52,107.52c0,1.68,0,3.36,0,5,0,1,.34,1.35,1.44,1.44" transform="translate(-66.87 -49.69)"/><path class="cls-3" d="M221.52,78.72c0,1.68,0,3.36,0,5,0,1,.34,1.35,1.44,1.44" transform="translate(-66.87 -49.69)"/><path class="cls-3" d="M298.68,95.28a3.68,3.68,0,0,0,.83-.37,2.05,2.05,0,0,1,3.37,1.81,5.84,5.84,0,0,1-.39,1.9,1.86,1.86,0,0,1-3.09.5l-.72-.6" transform="translate(-66.87 -49.69)"/><path class="cls-3" d="M279.72,94.32c.86.17.79,1,1.07,1.57.56,1.12,1,2.27,1.57,3.41" transform="translate(-66.87 -49.69)"/><path class="cls-3" d="M263.64,80.88c-.84-.39-1.46-1.26-2.66-.64a2.53,2.53,0,0,0-1.37,2.56c0,.91.27,2,1.4,2.24a4.72,4.72,0,0,0,1.91-.22,3.16,3.16,0,0,0,.84-.46" transform="translate(-66.87 -49.69)"/><path class="cls-3" d="M210.12,95.28c-.84-.39-1.46-1.26-2.66-.64a2.53,2.53,0,0,0-1.37,2.56c0,.91.27,2,1.4,2.24a4.72,4.72,0,0,0,1.91-.22,3.16,3.16,0,0,0,.84-.46" transform="translate(-66.87 -49.69)"/><path class="cls-3" d="M287.28,80.52a2.2,2.2,0,0,0-3,.24,3.46,3.46,0,0,0-.36,3.36,2.68,2.68,0,0,0,3.24,1" transform="translate(-66.87 -49.69)"/><path class="cls-3" d="M199.08,109.08v5" transform="translate(-66.87 -49.69)"/><path class="cls-3" d="M267.6,123.36v5" transform="translate(-66.87 -49.69)"/><path class="cls-3" d="M236.52,109.08v5" transform="translate(-66.87 -49.69)"/><path class="cls-3" d="M295.68,94.56v5" transform="translate(-66.87 -49.69)"/><path class="cls-3" d="M266.82,80.16v5" transform="translate(-66.87 -49.69)"/><path class="cls-3" d="M276.42,80.16v5" transform="translate(-66.87 -49.69)"/><path class="cls-3" d="M289.38,80.16v5" transform="translate(-66.87 -49.69)"/><path class="cls-3" d="M213.3,94.56v5" transform="translate(-66.87 -49.69)"/><path class="cls-3" d="M251.34,109v5" transform="translate(-66.87 -49.69)"/><path class="cls-3" d="M316.92,80.28v5" transform="translate(-66.87 -49.69)"/><path class="cls-3" d="M220.92,65.88v5" transform="translate(-66.87 -49.69)"/><path class="cls-3" d="M288.42,65.76v5" transform="translate(-66.87 -49.69)"/><path class="cls-3" d="M241.32,82.8c.23,2.3,1.87,2.92,3.84,2.28" transform="translate(-66.87 -49.69)"/><path class="cls-3" d="M212.52,126c.23,2.3,1.87,2.92,3.84,2.28" transform="translate(-66.87 -49.69)"/><path class="cls-3" d="M299.88,114.12a19.65,19.65,0,0,1-.2-3.24c.09-.91-.18-1.63-.9-1.86a6,6,0,0,0-2.26.08s0,.3,0,.46" transform="translate(-66.87 -49.69)"/><path class="cls-3" d="M313.08,68.4c.23,2.3,1.87,2.92,3.84,2.28" transform="translate(-66.87 -49.69)"/><path class="cls-3" d="M234.84,128.52a19.65,19.65,0,0,1-.2-3.24c.09-.91-.18-1.63-.9-1.86a6,6,0,0,0-2.26.08s0,.3,0,.46" transform="translate(-66.87 -49.69)"/><path class="cls-3" d="M318.36,111.6c.23,2.3,1.87,2.92,3.84,2.28" transform="translate(-66.87 -49.69)"/><path class="cls-3" d="M315.24,128.52a19.65,19.65,0,0,1-.2-3.24c.09-.91-.18-1.63-.9-1.86a6,6,0,0,0-2.26.08s0,.3,0,.46" transform="translate(-66.87 -49.69)"/><path class="cls-3" d="M284.52,94.44c-.48,1.16-.95,2.32-1.44,3.48-.64,1.48-1,3.12-2.52,4.08,0,0-.08,0-.12,0" transform="translate(-66.87 -49.69)"/><path class="cls-3" d="M301.08,70.92c-.08-1-.21-1.92-.23-2.88-.08-2.93-1.31-2.59-3.13-2.16" transform="translate(-66.87 -49.69)"/><path class="cls-3" d="M262.68,128.52c-.77.12-.69-.5-.7-.9,0-.94.09-1.88.09-2.82,0-1.21-1.3-1.89-2.75-1.44l-.36.12" transform="translate(-66.87 -49.69)"/><path class="cls-3" d="M219.24,99.72c0-1-.06-2.08-.12-3.12-.13-2.08-1.07-2.67-3-1.92" transform="translate(-66.87 -49.69)"/><path class="cls-3" d="M286.92,128.52c0-1-.06-2.08-.12-3.12-.13-2.08-1.07-2.67-3-1.92" transform="translate(-66.87 -49.69)"/><path class="cls-3" d="M257.4,85.32c0-1-.06-2.08-.12-3.12-.13-2.08-1.07-2.67-3-1.92" transform="translate(-66.87 -49.69)"/><path class="cls-3" d="M253.8,128.52c0-1-.06-2.08-.12-3.12-.13-2.08-1.07-2.67-3-1.92" transform="translate(-66.87 -49.69)"/><path class="cls-3" d="M196.32,109l.12,5.16" transform="translate(-66.87 -49.69)"/><path class="cls-3" d="M239.1,65.76l.06,5.16" transform="translate(-66.87 -49.69)"/><path class="cls-3" d="M208.2,65.64c0,1.12.09,2.24.12,3.36,0,.6,0,1.2,0,1.8" transform="translate(-66.87 -49.69)"/><path class="cls-3" d="M241.8,65.64c0,1.12.09,2.24.12,3.36,0,.6,0,1.2,0,1.8" transform="translate(-66.87 -49.69)"/><path class="cls-3" d="M303.48,65.64l.12,3.72c0,.48,0,1,0,1.44" transform="translate(-66.87 -49.69)"/><path class="cls-3" d="M239,80.16l.12,5.16" transform="translate(-66.87 -49.69)"/><path class="cls-3" d="M221.52,123.36l.12,5.16" transform="translate(-66.87 -49.69)"/><path class="cls-3" d="M247.56,94.44c0,1.12.09,2.24.12,3.36,0,.6,0,1.2,0,1.8" transform="translate(-66.87 -49.69)"/><path class="cls-3" d="M281,123.36l.12,5.16" transform="translate(-66.87 -49.69)"/><path class="cls-3" d="M270.84,94.44c0,1.12.09,2.24.12,3.36,0,.6,0,1.2,0,1.8" transform="translate(-66.87 -49.69)"/><path class="cls-3" d="M305.28,91.92V99.6" transform="translate(-66.87 -49.69)"/><path class="cls-3" d="M264.78,109l.06,5.16" transform="translate(-66.87 -49.69)"/><path class="cls-3" d="M260.88,94.56l.12,5.16" transform="translate(-66.87 -49.69)"/><path class="cls-3" d="M206.52,108.84c0,1.12.09,2.24.12,3.36,0,.6,0,1.2,0,1.8" transform="translate(-66.87 -49.69)"/><path class="cls-3" d="M292.08,80.16l.12,5.16" transform="translate(-66.87 -49.69)"/><path class="cls-3" d="M198.24,80.16l.12,5.16" transform="translate(-66.87 -49.69)"/><path class="cls-3" d="M234.24,94.56l.18,5" transform="translate(-66.87 -49.69)"/><path class="cls-3" d="M289,94.56l.06,5" transform="translate(-66.87 -49.69)"/><path class="cls-3" d="M221.76,94.56l.12,5.16" transform="translate(-66.87 -49.69)"/><path class="cls-3" d="M243.84,123.36l.18,5" transform="translate(-66.87 -49.69)"/><path class="cls-3" d="M261.12,95.4c.12,0,.28,0,.35,0,1.67-1.34,1.74-1.33,3.13.25v4.08" transform="translate(-66.87 -49.69)"/><path class="cls-3" d="M239.28,109l.06,5" transform="translate(-66.87 -49.69)"/><path class="cls-3" d="M267.36,109l.18,5" transform="translate(-66.87 -49.69)"/><path class="cls-3" d="M221.76,124.2c.12,0,.28,0,.35,0,1.67-1.34,1.74-1.33,3.13.25v4.08" transform="translate(-66.87 -49.69)"/><path class="cls-3" d="M289.44,123.36l.12,5.16" transform="translate(-66.87 -49.69)"/><path class="cls-3" d="M308.88,109l.12,5.16" transform="translate(-66.87 -49.69)"/><path class="cls-3" d="M253.56,125.4a17.17,17.17,0,0,0-2.39.5,1.52,1.52,0,0,0-.85,1.9,1.68,1.68,0,0,0,2.16.48l1.08-.6" transform="translate(-66.87 -49.69)"/><path class="cls-3" d="M219,96.6a17.17,17.17,0,0,0-2.39.5,1.52,1.52,0,0,0-.85,1.9,1.68,1.68,0,0,0,2.16.48l1.08-.6" transform="translate(-66.87 -49.69)"/><path class="cls-3" d="M308,123.24l.12,5.16" transform="translate(-66.87 -49.69)"/><path class="cls-3" d="M289.68,124.32a4.26,4.26,0,0,1,1-.7c.49-.17,1.15-.4,1.52-.2a2.08,2.08,0,0,1,.95,1.38,35.48,35.48,0,0,1,0,3.72" transform="translate(-66.87 -49.69)"/><path class="cls-3" d="M258.18,94.56l.18,5.16" transform="translate(-66.87 -49.69)"/><path class="cls-3" d="M286.68,125.4a17.17,17.17,0,0,0-2.39.5,1.52,1.52,0,0,0-.85,1.9,1.68,1.68,0,0,0,2.16.48l1.08-.6" transform="translate(-66.87 -49.69)"/><path class="cls-3" d="M247.68,80.16l.12,5.16" transform="translate(-66.87 -49.69)"/><path class="cls-3" d="M257.16,82.2a17.17,17.17,0,0,0-2.39.5,1.52,1.52,0,0,0-.85,1.9,1.68,1.68,0,0,0,2.16.48l1.08-.6" transform="translate(-66.87 -49.69)"/><path class="cls-3" d="M222,95.52a4.26,4.26,0,0,1,1-.7c.49-.17,1.15-.4,1.52-.2a2.08,2.08,0,0,1,.95,1.38,35.48,35.48,0,0,1,0,3.72" transform="translate(-66.87 -49.69)"/><path class="cls-3" d="M198.48,65.76l.06,5" transform="translate(-66.87 -49.69)"/><path class="cls-3" d="M277.08,65.64l.12,5.16" transform="translate(-66.87 -49.69)"/><path class="cls-3" d="M303.84,66.48a2.51,2.51,0,0,0,.71-.37,1.37,1.37,0,0,1,1.68-.34,1.65,1.65,0,0,1,1,1.67c0,1.12,0,2.24,0,3.36" transform="translate(-66.87 -49.69)"/><path class="cls-3" d="M284.52,109.08l.12,4.92" transform="translate(-66.87 -49.69)"/><path class="cls-3" d="M209,123.36l.18,5" transform="translate(-66.87 -49.69)"/><path class="cls-3" d="M281.88,80c-.52,0-1,0-1.56,0s-1.09.21-1.22,1a1.08,1.08,0,0,0,.62,1.32c.28.15.55.42.84.46.91.13,1.09.73.94,1.46A1.38,1.38,0,0,1,280,85.3c-.47,0-1.21.22-1.2-.7" transform="translate(-66.87 -49.69)"/><path class="cls-3" d="M274.68,95.64c-1.24-1.5-1.24-1.5-3.48-.36" transform="translate(-66.87 -49.69)"/><path class="cls-3" d="M210.36,110c-1.24-1.5-1.24-1.5-3.48-.36" transform="translate(-66.87 -49.69)"/><path class="cls-3" d="M233.16,65.64c-.52,0-1,0-1.56,0s-1.09.21-1.22,1a1.08,1.08,0,0,0,.62,1.32c.28.15.55.42.84.46.91.13,1.09.73.94,1.46a1.38,1.38,0,0,1-1.54,1.06c-.47,0-1.21.22-1.2-.7" transform="translate(-66.87 -49.69)"/><path class="cls-3" d="M245.64,66.84c-1.24-1.5-1.24-1.5-3.48-.36" transform="translate(-66.87 -49.69)"/><path class="cls-3" d="M212,66.84c-1.24-1.5-1.24-1.5-3.48-.36" transform="translate(-66.87 -49.69)"/><path class="cls-3" d="M223.56,65.64c0,.76.11,1.52.11,2.28,0,1.76,0,3.52,0,5.28" transform="translate(-66.87 -49.69)"/><path class="cls-3" d="M190.44,120.84c0,2.2-.09,4.4-.11,6.6a7.91,7.91,0,0,0,.11,1.08" transform="translate(-66.87 -49.69)"/><path class="cls-3" d="M274.44,123.24v6.24c0,.44,0,.88-.06,1.32" transform="translate(-66.87 -49.69)"/><path class="cls-3" d="M201.24,92c0,2.2-.09,4.4-.11,6.6a7.91,7.91,0,0,0,.11,1.08" transform="translate(-66.87 -49.69)"/><path class="cls-3" d="M258.12,106.44l.12,7.56" transform="translate(-66.87 -49.69)"/><path class="cls-3" d="M227.16,106.44l.12,7.56" transform="translate(-66.87 -49.69)"/><path class="cls-3" d="M210.48,91.92q0,3.78,0,7.56c0,.08.07.16.11.24" transform="translate(-66.87 -49.69)"/><path class="cls-3" d="M258.36,63.24l.24,7.68" transform="translate(-66.87 -49.69)"/><path class="cls-3" d="M264,77.52q0,3.78,0,7.56c0,.08.07.16.11.24" transform="translate(-66.87 -49.69)"/><path class="cls-3" d="M298.44,92l.06,6.36c0,.44,0,.88-.06,1.32" transform="translate(-66.87 -49.69)"/><path class="cls-3" d="M324,84.12c-.28.76-.54,1.53-.85,2.28-.08.19-.31.32-.47.48" transform="translate(-66.87 -49.69)"/><path class="cls-3" d="M269.52,80.16l.12,7.56" transform="translate(-66.87 -49.69)"/><path class="cls-3" d="M324.12,69.84c-.28.4-.58.79-.84,1.2s-.56,1-.84,1.44" transform="translate(-66.87 -49.69)"/><path class="cls-3" d="M223.56,80.16,220.44,80" transform="translate(-66.87 -49.69)"/><path class="cls-3" d="M289.56,109l-3.12-.12" transform="translate(-66.87 -49.69)"/><path class="cls-3" d="M320,123.36l-3.12-.12" transform="translate(-66.87 -49.69)"/><path class="cls-3" d="M234.84,109l-3.12-.12" transform="translate(-66.87 -49.69)"/><path class="cls-3" d="M200.4,65.76l-1.68,1" transform="translate(-66.87 -49.69)"/><path class="cls-3" d="M249.6,80.16l-1.68,1.08" transform="translate(-66.87 -49.69)"/><path class="cls-3" d="M310.8,109,309.12,110" transform="translate(-66.87 -49.69)"/><path class="cls-3" d="M233.16,80l-3.12.12" transform="translate(-66.87 -49.69)"/><path class="cls-3" d="M276.12,108.84,273,109" transform="translate(-66.87 -49.69)"/><path class="cls-3" d="M321.72,80l-3.12.12" transform="translate(-66.87 -49.69)"/><path class="cls-3" d="M326.64,109h-2.4" transform="translate(-66.87 -49.69)"/><path class="cls-3" d="M321.36,65.76H319" transform="translate(-66.87 -49.69)"/><path class="cls-3" d="M293,65.76h-2.4" transform="translate(-66.87 -49.69)"/><path class="cls-3" d="M193.08,80c-1.62,1.11-1.9,1.71-1.56,3.36a2.13,2.13,0,0,0,2,1.92,2.36,2.36,0,0,0,2.28-1.8c.55-2.07-.52-3.48-2.64-3.48" transform="translate(-66.87 -49.69)"/><path class="cls-3" d="M204,123.24c-1.69,1-2,1.66-1.69,3.48a2.16,2.16,0,0,0,1.69,1.69,1.79,1.79,0,0,0,1.92-.49c.26-.26.48-.56.72-.84.36-2.78-.33-3.84-2.52-3.84" transform="translate(-66.87 -49.69)"/><path class="cls-3" d="M194.52,123.24c-1.62,1.11-1.9,1.71-1.56,3.36a2.13,2.13,0,0,0,2,1.92,2.36,2.36,0,0,0,2.28-1.8c.55-2.07-.52-3.48-2.64-3.48" transform="translate(-66.87 -49.69)"/><path class="cls-3" d="M303.72,108.84c-1.62,1.11-1.9,1.71-1.56,3.36a2.13,2.13,0,0,0,2,1.92,2.36,2.36,0,0,0,2.28-1.8c.55-2.07-.52-3.48-2.64-3.48" transform="translate(-66.87 -49.69)"/><circle class="cls-3" cx="320.2" cy="47.24" r="35.01"/><circle class="cls-3" cx="320.2" cy="47.24" r="29.17"/><circle class="cls-3" cx="320.2" cy="47.24" r="23.34"/><circle class="cls-3" cx="320.2" cy="47.24" r="17.5"/><circle class="cls-3" cx="320.2" cy="47.24" r="11.67"/><circle class="cls-3" cx="320.2" cy="47.24" r="5.83"/><line class="cls-3" x1="320.2" y1="47.24" x2="320.2" y2="82.25"/><line class="cls-3" x1="320.2" y1="47.24" x2="353.5" y2="58.06"/><line class="cls-3" x1="320.2" y1="47.24" x2="340.78" y2="18.92"/><line class="cls-3" x1="320.2" y1="47.24" x2="299.62" y2="18.92"/><line class="cls-3" x1="320.2" y1="47.24" x2="286.9" y2="58.06"/><rect class="cls-3" x="399.28" y="12.27" width="20.54" height="69.98"/><line class="cls-3" x1="399.28" y1="70.59" x2="419.82" y2="70.59"/><line class="cls-3" x1="399.28" y1="58.92" x2="419.82" y2="58.92"/><line class="cls-3" x1="399.28" y1="47.26" x2="419.82" y2="47.26"/><line class="cls-3" x1="399.28" y1="35.6" x2="419.82" y2="35.6"/><line class="cls-3" x1="399.28" y1="23.93" x2="419.82" y2="23.93"/><line class="cls-3" x1="416.4" y1="12.27" x2="416.4" y2="82.25"/><line class="cls-3" x1="412.97" y1="12.27" x2="412.97" y2="82.25"/><line class="cls-3" x1="409.55" y1="12.27" x2="409.55" y2="82.25"/><line class="cls-3" x1="406.12" y1="12.27" x2="406.12" y2="82.25"/><line class="cls-3" x1="402.7" y1="12.27" x2="402.7" y2="82.25"/><path class="cls-3" d="M165.94,215.92a45.74,45.74,0,0,1-61.21,21,36.6,36.6,0,0,1-16.77-49,29.27,29.27,0,0,1,39.17-13.42,23.43,23.43,0,0,1,10.74,31.34,18.74,18.74,0,0,1-25.08,8.59,15,15,0,0,1-6.86-20.06,12,12,0,0,1,16-5.49,9.59,9.59,0,0,1,4.4,12.83,7.67,7.67,0,0,1-10.27,3.52,6.14,6.14,0,0,1-2.82-8.22,4.93,4.93,0,0,1,6.58-2.25,3.94,3.94,0,0,1,1.8,5.26,3.14,3.14,0,0,1-4.21,1.44,2.51,2.51,0,0,1-1.15-3.36,2,2,0,0,1,2.69-.92,1.61,1.61,0,0,1,.74,2.15,1.28,1.28,0,0,1-1.72.59" transform="translate(-66.87 -49.69)"/><polygon class="cls-3" points="174.52 185.81 155.35 175.71 136.16 185.77 139.85 164.42 124.35 149.28 145.79 146.19 155.4 126.77 164.97 146.21 186.41 149.34 170.88 164.45 174.52 185.81"/><rect class="cls-3" x="215.61" y="134.78" width="55.34" height="55.34" rx="12"/><polygon class="cls-3" points="363.86 121.85 326.39 121.85 307.65 154.3 326.39 186.75 363.86 186.75 382.6 154.3 363.86 121.85"/><path class="cls-3" d="M137.59,289.62c1.84-.92,44.37-21.75,65.7-2.62,7,6.23,13.6,18.47,9.46,25.22-4.93,8-24.76,7.7-31.54-1.05-7.9-10.19,1.32-32.6,15.77-42.57,22.39-15.45,53.64,1.52,61.49,5.78,8.27,4.49,24.8,13.47,28.39,30.49,2.13,10.12-.07,24.31-7.36,26.8s-19.87-6.66-21-16.29c-2-16.53,28.81-41.11,58.87-39.95,24,.93,40.09,18,49.93,28.39,10.45,11.05,27.25,33.71,21,42-5.71,7.65-31.24,3.84-34.68-6.3-5.24-15.41,35.85-59.05,77.78-51.51,28.47,5.12,43.55,31.36,46.25,36.26" transform="translate(-66.87 -49.69)"/></svg>