<svg id="Layer_1" data-name="Layer 1" xmlns="http://www.w3.org/2000/svg" viewBox="0 0 520.86 488.28"><defs><style>.cls-1{fill:none;stroke:#231f20;stroke-miterlimit:10;}</style></defs><title>mplex</title><circle class="cls-1" cx="134.57" cy="134.57" r="134.07"/><circle class="cls-1" cx="134.57" cy="134.57" r="111.73"/><circle class="cls-1" cx="134.57" cy="134.57" r="89.38"/><circle class="cls-1" cx="134.57" cy="134.57" r="67.04"/><circle class="cls-1" cx="134.57" cy="134.57" r="44.69"/><circle class="cls-1" cx="134.57" cy="134.57" r="22.35"/><line class="cls-1" x1="134.57" y1="134.57" x2="134.57" y2="268.64"/><line class="cls-1" x1="134.57" y1="134.57" x2="262.08" y2="176"/><line class="cls-1" x1="134.57" y1="134.57" x2="213.38" y2="26.11"/><line class="cls-1" x1="134.57" y1="134.57" x2="55.77" y2="26.11"/><line class="cls-1" x1="134.57" y1="134.57" x2="7.06" y2="176"/><ellipse class="cls-1" cx="342.67" cy="136.55" rx="23.45" ry="103.71"/><ellipse class="cls-1" cx="342.67" cy="136.55" rx="19.54" ry="86.42"/><ellipse class="cls-1" cx="342.67" cy="136.55" rx="15.63" ry="69.14"/><ellipse class="cls-1" cx="342.67" cy="136.55" rx="11.73" ry="51.85"/><ellipse class="cls-1" cx="342.67" cy="136.55" rx="7.82" ry="34.57"/><ellipse class="cls-1" cx="342.67" cy="136.55" rx="3.91" ry="17.28"/><line class="cls-1" x1="342.67" y1="136.55" x2="342.67" y2="240.26"/><line class="cls-1" x1="342.67" y1="136.55" x2="364.97" y2="168.6"/><line class="cls-1" x1="342.67" y1="136.55" x2="356.45" y2="52.65"/><line class="cls-1" x1="342.67" y1="136.55" x2="328.88" y2="52.65"/><line class="cls-1" x1="342.67" y1="136.55" x2="320.36" y2="168.6"/><rect class="cls-1" x="201.61" y="323.18" width="180.97" height="164.6"/><line class="cls-1" x1="201.61" y1="460.35" x2="382.58" y2="460.35"/><line class="cls-1" x1="201.61" y1="432.91" x2="382.58" y2="432.91"/><line class="cls-1" x1="201.61" y1="405.48" x2="382.58" y2="405.48"/><line class="cls-1" x1="201.61" y1="378.05" x2="382.58" y2="378.05"/><line class="cls-1" x1="201.61" y1="350.61" x2="382.58" y2="350.61"/><line class="cls-1" x1="352.42" y1="323.18" x2="352.42" y2="487.78"/><line class="cls-1" x1="322.26" y1="323.18" x2="322.26" y2="487.78"/><line class="cls-1" x1="292.09" y1="323.18" x2="292.09" y2="487.78"/><line class="cls-1" x1="261.93" y1="323.18" x2="261.93" y2="487.78"/><line class="cls-1" x1="231.77" y1="323.18" x2="231.77" y2="487.78"/><path class="cls-1" d="M138.37,408a52.39,52.39,0,0,1-73.92,4.89,41.9,41.9,0,0,1-3.91-59.13,33.53,33.53,0,0,1,47.31-3.13,26.83,26.83,0,0,1,2.5,37.85,21.46,21.46,0,0,1-30.28,2,17.17,17.17,0,0,1-1.6-24.22A13.73,13.73,0,0,1,97.85,365a11,11,0,0,1,1,15.5,8.79,8.79,0,0,1-12.4.82,7,7,0,0,1-.65-9.92" transform="translate(-43.2 -29.93)"/><path class="cls-1" d="M563.56,256.65a57.25,57.25,0,0,1-57.25,57.24,45.8,45.8,0,0,1-45.8-45.79,36.64,36.64,0,0,1,36.64-36.64,29.31,29.31,0,0,1,29.31,29.31A23.45,23.45,0,0,1,503,284.22a18.76,18.76,0,0,1-18.76-18.76,15,15,0,0,1,15-15,12,12,0,0,1,12,12,9.6,9.6,0,0,1-9.61,9.6,7.68,7.68,0,0,1-7.68-7.68,6.14,6.14,0,0,1,6.14-6.15,4.92,4.92,0,0,1,4.92,4.92,3.93,3.93,0,0,1-3.93,3.93,3.15,3.15,0,0,1-3.15-3.15,2.51,2.51,0,0,1,2.52-2.51,2,2,0,0,1,2,2,1.61,1.61,0,0,1-1.61,1.61,1.29,1.29,0,0,1-1.29-1.29" transform="translate(-43.2 -29.93)"/></svg>