<svg id="Layer_1" data-name="Layer 1" xmlns="http://www.w3.org/2000/svg" viewBox="0 0 471.78 375.14"><defs><style>.cls-1{fill:#fff;}.cls-1,.cls-2{stroke:#231f20;stroke-miterlimit:10;}.cls-2{fill:none;}</style></defs><title>shapes</title><rect class="cls-1" x="1.9" y="0.5" width="59.29" height="59.29"/><rect class="cls-1" x="1.9" y="96.08" width="151.33" height="30.97"/><rect class="cls-1" x="101.9" y="0.5" width="69.03" height="69.03" rx="12"/><circle class="cls-1" cx="248.36" cy="42.54" r="34.07"/><ellipse class="cls-1" cx="392.52" cy="37.18" rx="78.76" ry="17.04"/><polygon class="cls-1" points="236 101.93 197.18 101.93 177.77 135.54 197.18 169.16 236 169.16 255.4 135.54 236 101.93"/><polygon class="cls-1" points="398.98 155.54 359.78 157.13 338.87 190.31 325.25 153.53 287.23 143.89 318 119.57 315.42 80.43 348.06 102.19 384.48 87.63 373.88 125.4 398.98 155.54"/><line class="cls-2" x1="88.62" y1="163.33" x2="177.77" y2="227.05"/><path class="cls-2" d="M371.8,313.28a58.18,58.18,0,0,1-80.53,16.82,46.55,46.55,0,0,1-13.46-64.43,37.23,37.23,0,0,1,51.54-10.76A29.78,29.78,0,0,1,338,296.14,23.82,23.82,0,0,1,305,303a19.06,19.06,0,0,1-5.51-26.39,15.26,15.26,0,0,1,21.11-4.41,12.2,12.2,0,0,1,3.52,16.89,9.75,9.75,0,0,1-13.51,2.82,7.81,7.81,0,0,1-2.25-10.8" transform="translate(-40.7 -39.33)"/><path class="cls-2" d="M81.53,279.65c24.85,9.86,46.54,7.42,52.21-2.65,6.77-12-10.45-32.72-14.16-37.17-2.63-3.16-24.12-29-44.24-24.78C49.57,220.46,29,274.53,49.67,306.2c23.74,36.31,92.19,28.52,105.31,5.31,9.49-16.79-10.84-40.12-1.77-47.78,8.08-6.83,34.25,3.17,43.37,22.12,9.92,20.63-2.35,47.77-19.47,60.18-26.63,19.3-66.24,3.88-67.26,8-.59,2.37,12.39,9,69.91,27.43" transform="translate(-40.7 -39.33)"/><polyline class="cls-2" points="313.75 374.84 348.8 329.7 373.58 356.67 357.65 284.57 386.85 300.27 386.85 276.61 415.17 276.61 407.21 254.88"/></svg>